<?xml version="1.0" encoding="utf-8"?>
<svg version="1.1" id="Layer_1" xmlns="http://www.w3.org/2000/svg" x="0px" y="0px" width="100%" viewBox="0 0 512 512" enable-background="new 0 0 512 512">
  <path fill="#6D777F" opacity="1.000000" stroke="none" d=" M211.000000,458.000000 C305.823669,458.000000 400.147308,457.997650 494.470978,458.017792 C496.272308,458.018188 498.178894,457.955780 499.853638,458.492615 C503.712463,459.729706 506.566467,464.276855 505.963959,467.675446 C505.297363,471.435699 501.243530,474.933990 497.117645,474.970825 C487.306824,475.058380 477.494690,474.999023 466.999298,474.999023 C466.999298,482.535370 467.054047,489.799255 466.978241,497.061768 C466.934509,501.248230 464.839020,504.802582 460.858948,505.327087 C458.110779,505.689270 454.298553,504.330170 452.331055,502.367645 C450.577301,500.618347 450.238617,497.007843 450.095612,494.177277 C449.785614,488.041748 450.000061,481.879700 450.000061,475.365112 C435.040741,475.365112 420.323090,475.365112 405.000000,475.365112 C405.000000,482.134003 405.015625,488.906891 404.995239,495.679626 C404.977875,501.459961 401.337006,505.916718 396.614777,505.995850 C391.936462,506.074249 388.125153,501.716675 388.027161,495.873596 C387.913361,489.085571 388.000610,482.294128 388.000610,475.256226 C372.938568,475.256226 358.339081,475.256226 343.000000,475.256226 C343.000000,481.972290 343.012085,488.729950 342.996399,495.487549 C342.982269,501.578064 339.199921,506.133606 334.306946,505.995056 C329.577148,505.861115 326.020111,501.430359 326.004211,495.601379 C325.986115,488.957825 326.000000,482.314209 326.000000,475.336609 C310.982056,475.336609 296.264954,475.336609 281.000000,475.336609 C281.000000,482.200745 281.017670,488.980530 280.994568,495.760162 C280.975067,501.491455 277.246765,505.974213 272.534241,505.996613 C267.820618,506.019012 264.028015,501.528778 264.006134,495.828644 C263.980042,489.042725 264.000000,482.256561 264.000000,475.240204 C248.905869,475.240204 234.306595,475.240204 218.999985,475.240204 C218.999985,482.011169 219.013031,488.772064 218.996109,495.532898 C218.980927,501.605835 215.158493,506.164581 210.261581,505.994537 C205.542480,505.830719 202.018784,501.397247 202.003922,495.556030 C201.987015,488.916656 202.000015,482.277191 202.000015,475.320557 C186.949142,475.320557 172.232193,475.320557 156.999954,475.320557 C156.999954,481.903320 157.169250,488.361206 156.915283,494.802368 C156.815933,497.322144 156.537964,500.635101 154.960556,502.100403 C152.834137,504.075684 149.179977,505.875763 146.532639,505.468445 C142.778870,504.890839 140.049591,501.648407 140.016266,497.247772 C139.962082,490.090881 140.001648,482.933258 140.001648,475.388489 C125.089035,475.388489 110.370796,475.388489 94.999931,475.388489 C94.999931,481.910736 95.147865,488.517242 94.921188,495.110870 C94.839790,497.478668 94.594933,500.638763 93.109497,501.972382 C90.910027,503.947021 87.408676,505.840607 84.695412,505.554138 C80.591492,505.120911 78.063339,501.663116 78.019852,497.175476 C77.950569,490.025665 78.001335,482.874695 78.001335,475.000000 C71.680000,475.000000 65.583328,474.857025 59.495335,475.026306 C39.540638,475.581146 38.437218,474.477051 38.963181,454.287872 C39.184322,445.799164 39.000000,437.299927 39.000000,427.997406 C31.106710,427.997406 23.356030,428.093292 15.609329,427.959198 C11.372404,427.885834 7.921498,423.996918 8.015771,419.833740 C8.118698,415.288452 11.148900,412.202362 15.833421,412.019989 C18.495796,411.916351 21.165478,412.000183 23.831871,412.000092 C28.648560,411.999878 33.465248,412.000000 38.639992,412.000000 C38.639992,396.696686 38.639992,381.645966 38.639992,366.000000 C31.520992,366.000000 24.413511,366.016144 17.306139,365.994904 C11.574931,365.977783 7.783925,362.938080 8.098358,358.036682 C8.406332,353.235901 10.877369,349.723450 17.136936,349.942505 C24.251114,350.191467 31.380705,350.000000 38.746883,350.000000 C38.746883,334.598907 38.746883,319.666229 38.746883,303.999756 C31.351711,303.999756 23.909582,304.291077 16.514484,303.829285 C14.175278,303.683197 11.592778,301.914948 9.775877,300.197083 C6.946969,297.522339 7.645810,293.847260 9.631649,291.186737 C10.874983,289.520996 13.644069,288.245544 15.794183,288.140686 C23.263704,287.776428 30.761900,288.000061 38.623951,288.000061 C38.623951,272.729950 38.623951,257.678772 38.623951,241.999603 C31.559248,241.999603 24.454237,242.078674 17.351820,241.976852 C10.542817,241.879227 6.752719,236.612625 8.984514,230.614563 C10.142052,227.503586 12.102514,225.881607 15.634127,225.952896 C23.253418,226.106705 30.877962,226.000198 38.746204,226.000198 C38.746204,210.600128 38.746204,195.667419 38.746204,179.999985 C32.021866,179.999985 25.263670,180.013596 18.505552,179.996078 C12.038174,179.979309 8.032073,176.736496 8.003376,171.536179 C7.976833,166.726318 12.501630,163.069244 18.705172,163.013290 C25.199842,162.954697 31.695454,163.000183 38.594971,163.000183 C38.594971,148.123169 38.594971,133.404388 38.594971,117.999977 C31.959307,117.999977 25.196243,118.013176 18.433258,117.995972 C12.593047,117.981110 8.161758,114.450523 8.005308,109.727654 C7.845552,104.904968 12.363523,101.088272 18.513220,101.017570 C25.145563,100.941330 31.779463,101.000320 38.703838,101.000320 C38.703838,86.020172 38.703838,71.419891 38.703838,55.999813 C31.787664,55.999813 24.706207,56.041077 17.625494,55.986267 C12.318176,55.945187 7.952341,51.996513 8.003853,47.419792 C8.055188,42.858749 12.437262,39.080574 17.785864,39.003811 C19.452017,38.979900 21.118807,39.002728 22.785295,38.999493 C27.617865,38.990105 32.450443,38.981907 37.282955,38.959545 C37.604816,38.958054 37.926144,38.842030 39.000000,38.632469 C39.000000,32.377121 38.998249,25.955118 39.000473,19.533117 C39.002903,12.506806 42.490025,7.873370 47.672268,8.004743 C52.656376,8.131091 55.999180,12.689050 55.999226,19.377724 C56.000248,163.196320 56.000000,307.014893 56.000000,450.833496 C56.000000,452.983429 56.000000,455.133331 56.000000,458.000000 C107.670601,458.000000 159.085297,458.000000 211.000000,458.000000 z"/>
  <path fill="#FB8A00" opacity="1.000000" stroke="none" d=" M101.743721,166.765594 C102.219688,166.254105 102.412895,165.971603 102.666626,165.762604 C109.217598,160.366592 105.865936,154.730713 103.490341,148.751160 C101.695732,144.233978 97.748421,146.152267 95.005409,145.308426 C89.763527,143.695892 84.075081,143.535065 78.009262,142.693665 C78.009262,131.817963 77.923729,120.866600 78.154968,109.921936 C78.175781,108.937050 80.128563,107.366203 81.379524,107.137840 C88.434120,105.850014 95.548477,104.889503 102.597359,103.824234 C103.457748,101.377419 103.817436,98.787354 105.150398,96.876053 C108.346519,92.293182 106.185318,89.141266 103.256439,85.644218 C100.332481,82.153038 97.817253,78.310150 95.241966,74.540077 C93.827049,72.468727 93.640121,70.661880 95.857651,68.536713 C103.190308,61.509415 110.253601,54.201042 117.798546,46.620464 C123.838600,50.869892 129.700134,55.191196 135.802750,59.139912 C137.221008,60.057594 139.562363,60.183819 141.295197,59.813755 C143.302765,59.385014 145.312469,58.264309 146.942200,56.967602 C148.539719,55.696514 150.462753,53.997372 150.847275,52.189285 C152.233734,45.669903 153.031464,39.025307 154.116974,32.004902 C165.087799,32.004902 175.891312,31.871250 186.680710,32.200367 C187.828598,32.235378 189.549957,34.848186 189.875671,36.489319 C190.891830,41.609104 191.196945,46.866753 192.118378,52.009926 C192.602219,54.710693 193.682861,57.102840 197.159592,57.724213 C199.810669,58.198029 202.281555,59.680157 205.157822,60.845486 C210.860733,56.894077 216.982697,52.889591 222.809204,48.493515 C225.008896,46.833851 226.290894,46.693035 228.230453,48.667419 C235.461624,56.028389 242.822586,63.261841 250.376343,70.783592 C246.153748,76.827042 241.940826,82.599800 238.064240,88.590233 C237.126282,90.039642 236.739563,92.322273 237.086914,94.019661 C237.664444,96.841774 238.426971,100.068108 240.265945,102.056717 C241.873444,103.795013 245.003967,104.405937 247.579895,104.906921 C252.382141,105.840912 257.304504,106.164200 262.097443,107.134148 C263.225494,107.362434 264.848572,109.136337 264.869507,110.225609 C265.076935,121.016121 264.995087,131.812180 264.995087,142.628006 C257.316772,143.798752 250.048569,144.757965 242.863083,146.145508 C241.628891,146.383820 240.659088,148.382309 239.717285,149.676926 C235.398911,155.613129 236.221725,161.090332 241.038040,166.413727 C243.104523,168.697784 244.359726,171.761337 246.559967,173.868958 C250.589142,177.728500 249.220505,180.536148 245.804184,183.778824 C240.004272,189.283966 234.403244,195.002640 228.824615,200.734726 C226.844040,202.769791 225.475906,203.647522 222.660812,201.439056 C217.039093,197.028778 210.931335,193.238052 204.915146,189.116699 C204.191620,189.425400 203.335159,189.981964 202.406647,190.157532 C192.884796,191.958145 191.587387,199.166336 190.930115,207.060349 C190.599167,211.035172 189.539459,214.949310 188.827179,218.794312 C177.008240,218.794312 165.720383,218.794312 154.213852,218.794312 C153.117523,211.554428 152.182861,204.455490 150.864685,197.428467 C150.588058,195.953918 149.158295,194.310364 147.806778,193.506424 C145.322098,192.028412 142.578674,190.807816 139.785873,190.102417 C138.447723,189.764420 136.506195,190.493149 135.258469,191.350677 C130.152802,194.859619 125.306938,198.753891 120.125946,202.139862 C119.053040,202.841034 116.351242,202.612183 115.427322,201.732819 C107.731934,194.408264 100.277275,186.830811 92.815453,179.395035 C95.890022,175.011581 98.689590,171.020203 101.743721,166.765594 M139.056870,152.325867 C150.050903,164.610947 163.969925,169.956451 179.945114,166.761276 C203.614441,162.027237 218.565872,138.624969 212.891937,115.391678 C208.516174,97.474075 195.805542,86.148315 178.564667,83.273430 C163.141129,80.701591 149.545090,85.665329 139.248749,98.213638 C125.723862,114.696602 125.921944,135.542938 139.056870,152.325867 z"/>
  <path fill="#6D777F" opacity="1.000000" stroke="none" d=" M482.000000,404.000000 C482.000000,414.798523 482.000000,425.097015 482.000000,435.695618 C460.920441,435.695618 440.208405,435.695618 419.247681,435.695618 C419.247681,355.274292 419.247681,275.030060 419.247681,194.392807 C439.899231,194.392807 460.612335,194.392807 482.000000,194.392807 C482.000000,264.035431 482.000000,333.767700 482.000000,404.000000 z"/>
  <path fill="#6D777F" opacity="1.000000" stroke="none" d=" M389.000000,338.000000 C389.000000,370.788147 389.000000,403.076324 389.000000,435.681641 C367.950928,435.681641 347.240875,435.681641 326.264709,435.681641 C326.264709,381.306732 326.264709,327.060364 326.264709,272.406799 C346.868835,272.406799 367.580078,272.406799 389.000000,272.406799 C389.000000,294.009186 389.000000,315.754608 389.000000,338.000000 z"/>
  <path fill="#6D777F" opacity="1.000000" stroke="none" d=" M269.000000,436.000000 C256.872375,436.000000 245.244720,436.000000 233.310150,436.000000 C233.310150,407.275970 233.310150,378.907837 233.310150,350.269379 C254.024368,350.269379 274.613037,350.269379 295.601379,350.269379 C295.601379,378.544403 295.601379,406.913513 295.601379,436.000000 C287.004822,436.000000 278.252411,436.000000 269.000000,436.000000 z"/>
  <path fill="#6D777F" opacity="1.000000" stroke="none" d=" M444.995880,39.000000 C449.327911,39.000019 453.161285,38.972347 456.994080,39.006248 C463.491821,39.063713 466.971863,42.491753 466.988525,48.970306 C467.025391,63.302704 467.003906,77.635262 466.998260,91.967758 C466.995605,98.634651 464.567993,101.788666 459.551422,102.024429 C453.287598,102.318832 450.948029,100.296539 450.128784,92.225006 C449.492554,85.956551 450.006805,79.571968 449.992523,73.239037 C449.990387,72.281830 449.894867,71.324837 449.773346,69.101837 C447.689178,71.020355 446.279175,72.228027 444.970001,73.536598 C408.430237,110.060051 371.921570,146.614685 335.329803,183.085983 C332.388184,186.017899 329.403931,189.276123 324.215363,187.156845 C318.659546,184.887589 316.814178,177.988388 320.952240,173.574692 C321.635284,172.846130 322.355621,172.152344 323.062073,171.445816 C359.945740,134.559113 396.826691,97.669678 433.726318,60.798969 C435.020752,59.505550 436.501587,58.398647 437.514893,55.999607 C429.492767,55.999607 421.469971,56.062054 413.448700,55.979290 C407.336853,55.916233 404.266510,53.325523 404.001190,48.282444 C403.688629,42.341576 406.937134,39.072521 413.496307,39.021603 C423.829285,38.941387 434.163361,39.000103 444.995880,39.000000 z"/>
  <path fill="#FB8A00" opacity="1.000000" stroke="none" d=" M470.978180,140.000000 C474.781616,140.000000 478.088440,140.000000 481.695984,140.000000 C481.695984,153.364655 481.695984,166.422470 481.695984,179.741089 C460.996124,179.741089 440.389709,179.741089 419.391205,179.741089 C419.391205,166.815460 419.391205,153.755432 419.391205,140.000000 C436.304810,140.000000 453.393188,140.000000 470.978180,140.000000 z"/>
  <path fill="#FB8A00" opacity="1.000000" stroke="none" d=" M276.999512,335.000000 C262.196442,335.000000 247.893326,335.000000 233.296295,335.000000 C233.296295,321.619843 233.296295,308.562439 233.296295,295.251648 C254.017929,295.251648 274.623871,295.251648 295.615356,295.251648 C295.615356,308.197784 295.615356,321.257233 295.615356,335.000000 C289.690094,335.000000 283.594788,335.000000 276.999512,335.000000 z"/>
  <path fill="#FB8A00" opacity="1.000000" stroke="none" d=" M353.000000,257.000000 C343.862976,257.000000 335.225952,257.000000 326.295837,257.000000 C326.295837,243.952271 326.295837,231.228210 326.295837,218.251190 C347.018921,218.251190 367.624817,218.251190 388.615784,218.251190 C388.615784,230.865158 388.615784,243.591370 388.615784,257.000000 C377.016113,257.000000 365.258057,257.000000 353.000000,257.000000 z"/>
  <path fill="#6D777F" opacity="1.000000" stroke="none" d=" M145.000000,382.000000 C123.361092,382.000000 102.219383,382.169189 81.086250,381.819794 C77.871262,381.766632 73.687256,380.152588 71.710876,377.789185 C67.505219,372.759918 71.957863,365.200562 78.864151,365.041351 C86.516693,364.864868 94.176445,365.000092 101.833054,365.000061 C134.789780,364.999969 167.746506,365.002808 200.703232,364.996155 C204.426483,364.995392 207.987167,365.347076 210.022217,369.107574 C213.404190,375.357056 208.589432,381.938934 200.427902,381.974670 C182.118912,382.054840 163.809341,381.999908 145.000000,382.000000 z"/>
  <path fill="#6D777F" opacity="1.000000" stroke="none" d=" M82.279602,351.000000 C79.136490,350.410126 75.750496,350.613647 73.969162,349.021698 C71.922981,347.193054 69.708778,343.202026 70.435745,341.183014 C71.472771,338.302887 75.041611,336.268341 77.707512,334.091156 C78.309906,333.599182 79.646797,334.000854 80.645592,334.000824 C120.600853,333.999847 160.556274,333.953766 200.511002,334.100281 C203.280975,334.110413 206.609894,334.837952 208.695587,336.480499 C213.061386,339.918488 211.242264,347.890533 205.840790,349.883728 C203.600342,350.710480 201.034668,350.951660 198.616058,350.955627 C159.992722,351.018585 121.369240,351.000000 82.279602,351.000000 z"/>
  <path fill="#6D777F" opacity="1.000000" stroke="none" d=" M131.950165,413.000000 C114.809288,413.000000 98.159210,413.068054 81.510880,412.927460 C78.978447,412.906097 75.645020,412.717712 74.123779,411.180115 C72.060188,409.094482 70.007256,405.406586 70.432503,402.813080 C71.116707,398.640289 74.575279,395.949982 79.443642,395.976562 C92.263382,396.046570 105.083763,396.000061 117.903885,396.000000 C125.063179,396.000000 132.222839,395.955627 139.381638,396.014496 C144.945038,396.060272 148.882065,399.532501 148.995239,404.337799 C149.097275,408.669708 145.154434,412.523224 139.930878,412.958862 C137.450531,413.165741 134.938950,412.998016 131.950165,413.000000 z"/>
  <path fill="#FFFFFF" opacity="1.000000" stroke="none" d=" M138.993042,151.966034 C125.921944,135.542938 125.723862,114.696602 139.248749,98.213638 C149.545090,85.665329 163.141129,80.701591 178.564667,83.273430 C195.805542,86.148315 208.516174,97.474075 212.891937,115.391678 C218.565872,138.624969 203.614441,162.027237 179.945114,166.761276 C163.969925,169.956451 150.050903,164.610947 138.993042,151.966034 z"/>
</svg>